<svg width="37" height="56" viewBox="0 0 37 56" fill="none" xmlns="http://www.w3.org/2000/svg">
<path d="M36.9985 27.9593C37.0186 28.8756 36.8314 29.7857 36.4491 30.6309C36.0667 31.4762 35.4977 32.238 34.7786 32.8672L8.21775 54.8807C7.50809 55.4722 6.62892 55.8607 5.68628 55.9995H4.94632C4.25169 56.0092 3.56233 55.8864 2.92114 55.6386C2.05414 55.2789 1.32211 54.6885 0.818082 53.9425C0.281693 53.2209 -0.00369252 52.3646 0.000224407 51.4885V4.57445C-0.00916591 3.68636 0.276353 2.81707 0.818082 2.0844C1.32189 1.33828 2.05369 0.747778 2.92052 0.387939C3.78734 0.0280999 4.75003 -0.0848348 5.68628 0.0634861C6.62098 0.204228 7.49336 0.579541 8.21775 1.14612L34.545 23.1235C35.2849 23.7082 35.8847 24.4335 36.2975 25.2527C36.7415 26.0972 36.9791 27.021 36.9985 27.9593Z" fill="#00FC7E"/>
</svg>
