<svg width="255" height="52" viewBox="0 0 255 52" fill="none" xmlns="http://www.w3.org/2000/svg">
<g clip-path="url(#clip0_227_41)">
<path d="M65.7886 37.4671C64.0469 37.5069 62.3164 37.1759 60.7107 36.4957C59.3404 35.9045 58.1191 35.0118 57.1365 33.8835C56.2122 32.8162 55.5009 31.5799 55.0412 30.242C54.5943 28.9558 54.3638 27.6035 54.3593 26.2409V25.5837C54.3582 24.2099 54.5888 22.8458 55.0412 21.5496C55.4945 20.2351 56.1916 19.0191 57.0954 17.966C58.0452 16.8702 59.2197 15.9945 60.5382 15.3992C62.0391 14.7371 63.6653 14.4113 65.3039 14.4444C67.094 14.4096 68.869 14.7811 70.4968 15.5315C71.9412 16.2089 73.1888 17.2478 74.1203 18.5488C75.0397 19.8646 75.5839 21.4083 75.6938 23.0128H70.8337C70.7238 22.2407 70.3991 21.5156 69.897 20.9213C69.3712 20.3105 68.7116 19.8309 67.9702 19.5201C67.128 19.1697 66.2233 18.9967 65.3121 19.0117C64.4393 18.9961 63.5734 19.1695 62.7731 19.5201C62.0426 19.8509 61.3943 20.3408 60.8751 20.9544C60.3353 21.5973 59.9314 22.3441 59.6878 23.1492C59.409 24.0524 59.2704 24.9935 59.2769 25.9392C59.2568 26.9197 59.3955 27.8969 59.6878 28.8325C59.9506 29.6586 60.38 30.4212 60.949 31.0728C61.5135 31.7092 62.2165 32.2057 63.0032 32.5236C63.8774 32.8725 64.8113 33.0452 65.7517 33.032C66.9698 33.0654 68.1758 32.7806 69.252 32.2053C70.1772 31.7141 70.9248 30.9417 71.3883 29.9981L70.7967 33.342V28.1216H75.2789V32.7799C74.3552 34.2858 73.0203 35.4925 71.4335 36.256C69.6688 37.089 67.7376 37.5033 65.7886 37.4671ZM65.1642 29.0764V25.5507H77.0783V29.0764H65.1642Z" fill="#0E3221"/>
<path d="M79.9747 36.9008V20.5369H83.7462V27.5636H83.6558C83.6558 25.2572 84.1461 23.4757 85.1266 22.2192C86.1071 20.9627 87.5258 20.3317 89.3828 20.3261H90.0073V24.4595H88.82C87.5135 24.4595 86.5029 24.8149 85.7921 25.5176C85.0814 26.2203 84.724 27.2453 84.724 28.5804V36.9132L79.9747 36.9008Z" fill="#0E3221"/>
<path d="M99.8303 37.4671C98.5723 37.4914 97.3234 37.2478 96.1657 36.752C95.1568 36.3101 94.2554 35.6529 93.524 34.8259C92.8266 34.0273 92.2833 33.105 91.9218 32.1061C91.5579 31.1164 91.3715 30.0696 91.3712 29.0144V28.4192C91.3684 27.3449 91.5548 26.2785 91.9218 25.2696C92.2804 24.2771 92.8196 23.3604 93.5117 22.5664C94.2282 21.7498 95.1147 21.1021 96.1082 20.6692C97.2272 20.185 98.4357 19.9455 99.6537 19.9665C101.207 19.9144 102.741 20.3257 104.062 21.1487C105.234 21.9074 106.182 22.9696 106.806 24.2239C107.443 25.5067 107.769 26.9233 107.755 28.3572V29.9733H93.3761V27.2536H104.879L103.335 28.4936C103.356 27.6387 103.217 26.7875 102.924 25.9847C102.685 25.3376 102.255 24.7795 101.691 24.3851C101.084 23.9993 100.376 23.8063 99.6578 23.8312C98.9146 23.8072 98.1811 24.0057 97.5502 24.4016C96.955 24.8033 96.4985 25.381 96.2437 26.0549C95.6622 27.7457 95.6521 29.5824 96.215 31.2795C96.4598 31.9678 96.9177 32.559 97.5214 32.9659C98.2008 33.3431 98.9612 33.5485 99.737 33.5643C100.513 33.5802 101.281 33.406 101.975 33.0568C102.474 32.7779 102.87 32.3425 103.101 31.8168H107.459C107.23 32.8888 106.753 33.8914 106.067 34.7432C105.363 35.6058 104.468 36.2908 103.454 36.7437C102.311 37.2417 101.076 37.4883 99.8303 37.4671Z" fill="#0E3221"/>
<path d="M118.355 37.4671C117.095 37.4919 115.845 37.2482 114.686 36.752C113.678 36.3091 112.777 35.652 112.044 34.8259C111.347 34.0273 110.804 33.105 110.442 32.1061C110.08 31.1162 109.895 30.0694 109.896 29.0144V28.4192C109.892 27.3451 110.077 26.2788 110.442 25.2696C110.801 24.2771 111.34 23.3604 112.032 22.5664C112.749 21.7498 113.635 21.1021 114.629 20.6692C115.748 20.185 116.956 19.9454 118.174 19.9665C119.727 19.9136 121.261 20.325 122.582 21.1487C123.755 21.9074 124.703 22.9696 125.327 24.2239C125.965 25.5063 126.292 26.9229 126.28 28.3572V29.9733H111.901V27.2536H123.404L121.859 28.4936C121.881 27.6387 121.741 26.7874 121.448 25.9847C121.209 25.3376 120.779 24.7795 120.216 24.3851C119.609 23.9981 118.9 23.805 118.182 23.8312C117.439 23.8072 116.706 24.0057 116.075 24.4016C115.481 24.8045 115.024 25.3818 114.768 26.0549C114.45 26.9079 114.3 27.8146 114.324 28.7251C114.306 29.5946 114.445 30.4602 114.735 31.2795C114.982 31.967 115.439 32.5577 116.042 32.9659C116.721 33.3431 117.482 33.5485 118.257 33.5643C119.033 33.5802 119.801 33.406 120.495 33.0568C120.995 32.7779 121.39 32.3425 121.621 31.8168H125.984C125.756 32.8894 125.279 33.8924 124.591 34.7432C123.887 35.6058 122.992 36.2908 121.978 36.7437C120.836 37.2423 119.6 37.4889 118.355 37.4671Z" fill="#0E3221"/>
<path d="M129.423 36.9008V20.5369H133.194V27.5636H132.931C132.888 26.1354 133.102 24.7112 133.564 23.36C133.92 22.3318 134.603 21.4501 135.507 20.8511C136.464 20.2734 137.567 19.9864 138.683 20.0244H138.892C140.79 20.0244 142.239 20.6458 143.239 21.8885C144.239 23.1313 144.738 25.0175 144.738 27.5471V36.8967H139.989V27.2825C140.021 26.492 139.744 25.7203 139.217 25.1332C138.95 24.8539 138.627 24.6356 138.269 24.4929C137.911 24.3503 137.527 24.2867 137.142 24.3065C136.744 24.2908 136.348 24.3583 135.977 24.5049C135.606 24.6515 135.27 24.8739 134.989 25.158C134.712 25.4549 134.497 25.8046 134.356 26.1865C134.214 26.5683 134.151 26.9747 134.168 27.3817V36.8884L129.423 36.9008Z" fill="#0E3221"/>
<path d="M165.219 37.4671C163.481 37.5137 161.756 37.1617 160.173 36.4379C158.837 35.804 157.66 34.8742 156.731 33.7181C155.861 32.6337 155.193 31.4 154.759 30.0767C154.345 28.8502 154.128 27.5651 154.118 26.2699V25.6127C154.119 24.2468 154.34 22.8902 154.771 21.5951C155.199 20.2756 155.874 19.0508 156.759 17.9867C157.695 16.8847 158.861 16.004 160.173 15.4075C161.709 14.7255 163.376 14.3938 165.054 14.4361C166.846 14.4 168.623 14.7775 170.247 15.5397C171.694 16.2268 172.938 17.2827 173.854 18.6025C174.775 19.9638 175.323 21.5446 175.444 23.1864H170.563C170.449 22.3685 170.122 21.5956 169.614 20.9461C169.104 20.3166 168.446 19.8239 167.7 19.5119C166.867 19.1633 165.972 18.9902 165.071 19.0035C164.184 18.9868 163.305 19.1601 162.491 19.5119C161.758 19.8331 161.112 20.3246 160.605 20.9461C160.082 21.5957 159.688 22.341 159.446 23.1409C158.915 24.9738 158.915 26.9212 159.446 28.754C159.692 29.563 160.096 30.3147 160.634 30.9653C161.159 31.5913 161.825 32.0817 162.577 32.3955C163.415 32.7389 164.314 32.9076 165.219 32.8915C166.575 32.9359 167.911 32.5482 169.035 31.7837C169.54 31.4337 169.968 30.9825 170.292 30.4583C170.616 29.9341 170.829 29.3482 170.917 28.7375H175.785C175.618 30.3045 175.074 31.807 174.199 33.1147C173.29 34.4604 172.054 35.5502 170.609 36.2808C168.933 37.1055 167.084 37.5123 165.219 37.4671Z" fill="#0E3221"/>
<path d="M186.68 37.4671C185.382 37.4908 184.092 37.262 182.88 36.7933C181.829 36.3839 180.873 35.7589 180.074 34.9581C179.323 34.1946 178.732 33.2865 178.336 32.288C177.941 31.2743 177.74 30.1943 177.745 29.1053V28.4192C177.739 27.3098 177.946 26.2096 178.353 25.1787C178.753 24.162 179.36 23.2411 180.136 22.4755C180.948 21.6777 181.912 21.0535 182.971 20.6403C185.379 19.7419 188.027 19.7419 190.435 20.6403C191.483 21.0549 192.437 21.6792 193.237 22.4755C194.007 23.2466 194.613 24.166 195.02 25.1787C195.436 26.2077 195.646 27.3086 195.641 28.4192V29.1053C195.646 30.1943 195.445 31.2743 195.049 32.288C194.658 33.2884 194.066 34.1972 193.311 34.9581C192.514 35.7588 191.56 36.3838 190.509 36.7933C189.288 37.2634 187.988 37.4921 186.68 37.4671ZM186.68 33.4371C187.493 33.469 188.297 33.2606 188.993 32.8377C189.612 32.4356 190.102 31.8612 190.403 31.1844C190.732 30.4184 190.902 29.5927 190.902 28.7581C190.902 27.9236 190.732 27.0979 190.403 26.3319C190.084 25.6469 189.585 25.0624 188.961 24.6414C188.471 24.3134 187.916 24.0959 187.334 24.0038C186.753 23.9117 186.158 23.9471 185.592 24.1077C185.025 24.2683 184.5 24.5501 184.052 24.934C183.604 25.3179 183.243 25.7948 182.995 26.3319C182.677 27.1006 182.513 27.9252 182.513 28.7581C182.513 29.591 182.677 30.4157 182.995 31.1844C183.29 31.8687 183.786 32.4457 184.417 32.8377C185.1 33.2487 185.885 33.4566 186.68 33.4371Z" fill="#0E3221"/>
<path d="M197.247 18.6232V15.0933H203.952V18.6149L197.247 18.6232ZM199.174 36.9008V15.0933H203.952V36.8925L199.174 36.9008Z" fill="#0E3221"/>
<path d="M216.24 37.4671C214.943 37.4908 213.654 37.262 212.444 36.7933C211.392 36.3849 210.436 35.7598 209.638 34.9581C208.885 34.1957 208.294 33.2873 207.9 32.288C207.504 31.2743 207.304 30.1943 207.308 29.1053V28.4192C207.303 27.3098 207.509 26.2096 207.916 25.1787C208.316 24.1629 208.922 23.2423 209.695 22.4755C210.509 21.6795 211.473 21.0555 212.53 20.6403C214.938 19.7419 217.587 19.7419 219.995 20.6403C221.044 21.0538 221.999 21.6783 222.801 22.4755C223.569 23.2477 224.175 24.1669 224.584 25.1787C224.999 26.2077 225.21 27.3086 225.204 28.4192V29.1053C225.209 30.1943 225.008 31.2743 224.613 32.288C224.219 33.2873 223.628 34.1957 222.875 34.9581C222.077 35.7598 221.121 36.3849 220.069 36.7933C218.848 37.2642 217.547 37.4929 216.24 37.4671ZM216.24 33.4371C217.054 33.4695 217.86 33.2612 218.557 32.8377C219.176 32.4356 219.666 31.8612 219.966 31.1844C220.293 30.4177 220.461 29.5923 220.461 28.7581C220.461 27.924 220.293 27.0986 219.966 26.3319C219.647 25.6469 219.149 25.0624 218.524 24.6414C218.034 24.3127 217.479 24.0946 216.898 24.0022C216.316 23.9097 215.722 23.9449 215.155 24.1056C214.588 24.2662 214.063 24.5483 213.614 24.9326C213.166 25.3169 212.806 25.7943 212.559 26.3319C212.215 27.1118 212.048 27.959 212.07 28.8119C212.058 29.6328 212.219 30.447 212.542 31.2009C212.84 31.8847 213.337 32.4613 213.968 32.8543C214.655 33.2614 215.443 33.4636 216.24 33.4371Z" fill="#0E3221"/>
<path d="M228.528 36.9008V20.5369H232.299V27.5636H232.209C232.209 25.2572 232.699 23.4757 233.68 22.2192C234.66 20.9627 236.08 20.3358 237.94 20.3385H238.56V24.4719H237.373C236.071 24.4719 235.06 24.8273 234.345 25.53C233.63 26.2327 233.277 27.2577 233.277 28.5928V36.9256L228.528 36.9008Z" fill="#0E3221"/>
<path d="M247.2 37.4133C244.883 37.4133 243.073 36.9352 241.769 35.9791C241.131 35.5196 240.609 34.9144 240.248 34.2132C239.887 33.5121 239.696 32.7347 239.69 31.9449H243.905C243.96 32.2276 244.071 32.4962 244.231 32.7348C244.392 32.9734 244.598 33.1771 244.838 33.3337C245.386 33.7443 246.208 33.9482 247.303 33.9455C248.011 33.9759 248.716 33.8341 249.357 33.5321C249.6 33.4292 249.807 33.2568 249.953 33.0364C250.099 32.8159 250.178 32.5571 250.179 32.2921C250.182 32.0626 250.127 31.8361 250.017 31.6347C249.908 31.4333 249.748 31.2639 249.554 31.1431C248.869 30.7732 248.109 30.5641 247.332 30.5313L246.054 30.4115C244.093 30.2131 242.624 29.662 241.646 28.7581C241.167 28.3286 240.788 27.799 240.534 27.2064C240.279 26.6138 240.157 25.9726 240.175 25.3275C240.139 24.2939 240.442 23.2772 241.038 22.4341C241.651 21.6279 242.481 21.0154 243.429 20.6692C244.544 20.2557 245.725 20.0538 246.913 20.074C249.013 20.074 250.706 20.5369 251.991 21.4628C252.625 21.9185 253.139 22.5221 253.491 23.2218C253.842 23.9216 254.02 24.6966 254.008 25.4804H249.78C249.74 25.2104 249.646 24.9511 249.505 24.7177C249.364 24.4843 249.178 24.2813 248.959 24.1205C248.335 23.7099 247.595 23.5154 246.851 23.5667C246.241 23.5359 245.634 23.6792 245.101 23.98C244.901 24.0933 244.735 24.2585 244.62 24.4584C244.505 24.6584 244.445 24.8857 244.448 25.1167C244.44 25.3258 244.488 25.5332 244.587 25.7172C244.686 25.9012 244.832 26.055 245.011 26.1624C245.582 26.4595 246.209 26.6327 246.851 26.6708L248.129 26.7907C250.125 27.0084 251.678 27.5595 252.788 28.444C253.324 28.874 253.753 29.4251 254.038 30.0527C254.324 30.6804 254.458 31.3668 254.431 32.0565C254.452 33.0798 254.139 34.0818 253.54 34.9085C252.892 35.7556 252.016 36.3982 251.017 36.7603C249.796 37.2151 248.502 37.4366 247.2 37.4133Z" fill="#0E3221"/>
<path d="M41.5536 23.9841L43.4352 25.0753C44.0074 25.4082 44.4826 25.8867 44.8128 26.4628C45.1431 27.0388 45.3169 27.6922 45.3168 28.3572V37.1075C45.3178 37.7727 45.1443 38.4263 44.8139 39.0025C44.4836 39.5788 44.008 40.0571 43.4352 40.3893L41.5536 41.4805L37.7862 43.6671L30.2557 48.0401L26.4883 50.2267L24.6067 51.322C24.0341 51.6551 23.3844 51.8304 22.723 51.8304C22.0616 51.8304 21.4119 51.6551 20.8394 51.322L18.9578 50.2267L11.4231 45.8495L7.65984 43.6629L3.8925 41.4764L2.01088 40.3811C1.4376 40.049 0.961431 39.5708 0.63037 38.9947C0.29931 38.4185 0.12505 37.7647 0.125154 37.0992V15.2339C0.124631 14.5683 0.298716 13.9143 0.629819 13.3381C0.960921 12.7618 1.43732 12.2837 2.01088 11.952L3.8925 10.8567L7.65984 8.67014L11.4231 6.4836L15.1904 4.29707L18.9578 2.11053L20.8394 1.01933C21.4119 0.686263 22.0616 0.510895 22.723 0.510895C23.3844 0.510895 24.0341 0.686263 24.6067 1.01933L30.2557 4.3012L34.0189 6.48774L37.7862 8.67427L45.3168 13.0515L41.5536 15.238L39.672 16.3333C39.0997 16.6652 38.4509 16.8399 37.7903 16.8399C37.1298 16.8399 36.481 16.6652 35.9087 16.3333L34.023 15.2421L30.2598 13.0556L26.4924 10.8691L24.6108 9.77787C24.0382 9.4448 23.3885 9.26943 22.7272 9.26943C22.0658 9.26943 21.416 9.4448 20.8435 9.77787L18.9619 10.8691L15.1904 13.0267L11.4231 15.2173L9.54146 16.3333C8.96922 16.6662 8.4941 17.1447 8.16383 17.7208C7.83355 18.2968 7.65973 18.9502 7.65984 19.6152V32.7427C7.65973 33.4077 7.83355 34.061 8.16383 34.6371C8.4941 35.2132 8.96922 35.6917 9.54146 36.0245L11.4231 37.1157L15.1863 39.3023L18.9536 41.4888L20.8353 42.58C21.4078 42.9131 22.0575 43.0884 22.7189 43.0884C23.3803 43.0884 24.03 42.9131 24.6026 42.58L26.4842 41.4888L34.0148 37.1116L37.7821 34.9251L40.1362 33.5569C40.5657 33.308 40.9224 32.9496 41.1705 32.5179C41.4186 32.0861 41.5493 31.5963 41.5495 31.0976V28.3613L37.7821 30.5479L34.0148 32.7385L32.1332 33.8297C31.5614 34.1629 30.9123 34.3383 30.2516 34.3383C29.5908 34.3383 28.9418 34.1629 28.3699 33.8297L26.4842 32.7385L22.721 30.5479L18.9578 28.3613L15.1904 26.1748L11.4231 23.9883L18.9578 19.6111L22.721 17.4245L24.6067 16.3292C25.1792 15.9981 25.828 15.8239 26.4883 15.8239C27.1487 15.8239 27.7975 15.9981 28.3699 16.3292L30.2557 17.4245L34.0189 19.6111L37.7862 21.7976L41.5536 23.9841Z" fill="#0E3221"/>
</g>
<defs>
<clipPath id="clip0_227_41">
<rect width="255" height="52" fill="white"/>
</clipPath>
</defs>
</svg>
