<svg width="53" height="60" viewBox="0 0 53 60" fill="none" xmlns="http://www.w3.org/2000/svg">
<path d="M47.9876 27.0253L50.1719 28.2864C50.8344 28.67 51.3845 29.221 51.767 29.8841C52.1495 30.5473 52.351 31.2993 52.3514 32.0648V42.1344C52.352 42.9002 52.1509 43.6526 51.7682 44.3159C51.3856 44.9792 50.835 45.53 50.1719 45.9129L47.9876 47.174L43.6285 49.6914L34.8962 54.7357L30.5371 57.2531L28.3528 58.5142C27.6897 58.8954 26.9382 59.096 26.1733 59.096C25.4084 59.096 24.6569 58.8954 23.9938 58.5142L21.8143 57.2483L13.0867 52.2135L8.72285 49.6961L4.3638 47.1787L2.17952 45.9177C1.51706 45.5352 0.966908 44.9851 0.584334 44.3227C0.201759 43.6603 0.000233237 42.9089 0 42.1439V16.9509C0.000844168 16.1849 0.203096 15.4326 0.586476 14.7694C0.969855 14.1062 1.52088 13.5555 2.18428 13.1725L4.3638 11.9161L8.72285 9.39875L13.0867 6.88135L17.4505 4.36395L21.8095 1.84656L23.9938 0.585477C24.6561 0.201957 25.4079 0 26.1733 0C26.9387 0 27.6905 0.201957 28.3528 0.585477L34.8962 4.36395L39.26 6.88135L43.6238 9.39399L52.3466 14.4335L47.9876 16.9509L45.8081 18.2073C45.1457 18.5908 44.3939 18.7927 43.6285 18.7927C42.8632 18.7927 42.1114 18.5908 41.449 18.2073L39.2647 16.9462L34.9009 14.4288L30.5371 11.9066L28.3528 10.6456C27.6905 10.262 26.9387 10.0601 26.1733 10.0601C25.4079 10.0601 24.6561 10.262 23.9938 10.6456L21.8143 11.9066L17.4552 14.424L13.0914 16.9414L10.9119 18.2025C10.2478 18.5848 9.69629 19.1353 9.31281 19.7987C8.92934 20.462 8.72749 21.2148 8.72761 21.981V37.0901C8.72749 37.8563 8.92934 38.6091 9.31281 39.2724C9.69629 39.9358 10.2478 40.4863 10.9119 40.8686L13.0914 42.1249L17.4505 44.6471L21.8095 47.1645L23.989 48.4255C24.6522 48.8067 25.4037 49.0073 26.1686 49.0073C26.9334 49.0073 27.6849 48.8067 28.3481 48.4255L30.5324 47.1645L39.2552 42.1249L43.619 39.6123L46.3458 38.0419C46.8452 37.7519 47.2592 37.3351 47.5458 36.8337C47.8325 36.3323 47.9816 35.7641 47.9781 35.1866V32.041L43.619 34.5584L39.2552 37.0758L37.0757 38.3369C36.4117 38.7181 35.6594 38.9186 34.8938 38.9186C34.1282 38.9186 33.3759 38.7181 32.7119 38.3369L30.5324 37.0758L26.1733 34.5584L21.8143 32.0363L17.4552 29.5237L13.0914 27.0063L21.8143 21.9857L26.1781 19.4683L28.3576 18.212C29.0208 17.8285 29.7734 17.6266 30.5395 17.6266C31.3056 17.6266 32.0582 17.8285 32.7214 18.212L34.9009 19.4683L39.2647 21.9905L43.6285 24.5079L47.9876 27.0253Z" fill="#0E3221"/>
</svg>
