<svg width="157" height="60" viewBox="0 0 157 60" fill="none" xmlns="http://www.w3.org/2000/svg">
<path d="M47.9876 27.0253L50.1719 28.2864C50.8344 28.67 51.3845 29.221 51.767 29.8841C52.1495 30.5473 52.351 31.2993 52.3514 32.0648V42.1344C52.352 42.9002 52.1509 43.6526 51.7682 44.3159C51.3856 44.9792 50.835 45.53 50.1719 45.9129L47.9876 47.174L43.6285 49.6914L34.8962 54.7357L30.5371 57.2531L28.3528 58.5142C27.6897 58.8954 26.9382 59.096 26.1733 59.096C25.4084 59.096 24.6569 58.8954 23.9938 58.5142L21.8143 57.2483L13.0867 52.2135L8.72285 49.6961L4.3638 47.1787L2.17952 45.9177C1.51706 45.5352 0.966908 44.9851 0.584334 44.3227C0.201759 43.6603 0.000233237 42.9089 0 42.1439V16.9509C0.000844168 16.1849 0.203096 15.4326 0.586476 14.7694C0.969855 14.1062 1.52088 13.5555 2.18428 13.1725L4.3638 11.9161L8.72285 9.39875L13.0867 6.88135L17.4505 4.36395L21.8095 1.84656L23.9938 0.585477C24.6561 0.201957 25.4079 0 26.1733 0C26.9387 0 27.6905 0.201957 28.3528 0.585477L34.8962 4.36395L39.26 6.88135L43.6238 9.39399L52.3466 14.4335L47.9876 16.9509L45.8081 18.2073C45.1457 18.5908 44.3939 18.7927 43.6285 18.7927C42.8632 18.7927 42.1114 18.5908 41.449 18.2073L39.2647 16.9462L34.9009 14.4288L30.5371 11.9066L28.3528 10.6456C27.6905 10.262 26.9387 10.0601 26.1733 10.0601C25.4079 10.0601 24.6561 10.262 23.9938 10.6456L21.8143 11.9066L17.4552 14.424L13.0914 16.9414L10.9119 18.2025C10.2478 18.5848 9.69629 19.1353 9.31281 19.7987C8.92934 20.462 8.72749 21.2148 8.72761 21.981V37.0901C8.72749 37.8563 8.92934 38.6091 9.31281 39.2724C9.69629 39.9358 10.2478 40.4863 10.9119 40.8686L13.0914 42.1249L17.4505 44.6471L21.8095 47.1645L23.989 48.4255C24.6522 48.8067 25.4037 49.0073 26.1686 49.0073C26.9334 49.0073 27.6849 48.8067 28.3481 48.4255L30.5324 47.1645L39.2552 42.1249L43.619 39.6123L46.3458 38.0419C46.8452 37.7519 47.2592 37.3351 47.5458 36.8337C47.8325 36.3323 47.9816 35.7641 47.9781 35.1866V32.041L43.619 34.5584L39.2552 37.0758L37.0757 38.3369C36.4117 38.7181 35.6594 38.9186 34.8938 38.9186C34.1282 38.9186 33.3759 38.7181 32.7119 38.3369L30.5324 37.0758L26.1733 34.5584L21.8143 32.0363L17.4552 29.5237L13.0914 27.0063L21.8143 21.9857L26.1781 19.4683L28.3576 18.212C29.0208 17.8285 29.7734 17.6266 30.5395 17.6266C31.3056 17.6266 32.0582 17.8285 32.7214 18.212L34.9009 19.4683L39.2647 21.9905L43.6285 24.5079L47.9876 27.0253Z" fill="#0E3221"/>
<path d="M84.34 15.7137V18.9877H82.6744V22.4283C81.8129 23.8289 80.5653 24.951 79.0815 25.6595C77.4214 26.4382 75.6039 26.8225 73.7707 26.7826C72.1388 26.8208 70.5173 26.5143 69.0119 25.8832C67.7376 25.3272 66.6005 24.4988 65.6808 23.4562C64.8153 22.4643 64.151 21.3135 63.7249 20.068C63.3079 18.873 63.0924 17.617 63.0872 16.3514V15.7137C63.0881 14.4384 63.3037 13.1723 63.7249 11.9685C64.1424 10.7475 64.7884 9.617 65.6284 8.63738C66.517 7.62198 67.6143 6.81037 68.8454 6.25798C70.2484 5.64368 71.7682 5.34167 73.2996 5.37285C74.9734 5.33913 76.6331 5.68571 78.1535 6.38647C79.5023 7.01418 80.6673 7.97766 81.537 9.18463C82.3994 10.4064 82.9082 11.8422 83.0075 13.3343H78.4581C78.3603 12.616 78.0561 11.9415 77.5825 11.3927C77.0931 10.8234 76.477 10.3768 75.7837 10.0888C74.9967 9.76249 74.1514 9.60055 73.2996 9.61292C72.4815 9.59926 71.6701 9.76155 70.9202 10.0888C70.237 10.3958 69.6307 10.851 69.1452 11.4213C68.6425 12.0188 68.2653 12.7115 68.0364 13.458C67.781 14.2985 67.6558 15.1732 67.6652 16.0516C67.6542 16.9603 67.7891 17.8648 68.0649 18.7308C68.3118 19.4974 68.7135 20.2053 69.2451 20.8104C69.7693 21.3966 70.4203 21.8555 71.1486 22.1523C72.0892 22.5122 73.0947 22.671 74.1004 22.6185C75.1061 22.5661 76.0896 22.3035 76.9876 21.8478C77.5335 21.5477 78.0179 21.1473 78.4153 20.6676V18.9639H73.2092V15.7137H84.34Z" fill="#0E3221"/>
<path d="M96.4083 10.8452V14.6522H95.2995C94.7857 14.6193 94.2705 14.6894 93.7842 14.8586C93.2979 15.0278 92.8504 15.2925 92.468 15.6373C92.1152 16.0197 91.8445 16.4703 91.6726 16.9614C91.5007 17.4525 91.4313 17.9736 91.4687 18.4926V26.7586H87.0097V11.0546H90.536V16.0989C90.6323 14.8372 91.0789 13.6275 91.8256 12.606C92.7393 11.4448 94.0654 10.8627 95.8039 10.8595L96.4083 10.8452Z" fill="#0E3221"/>
<path d="M112.997 18.3073C113.008 16.9749 112.703 15.6589 112.107 14.4669C111.524 13.3026 110.638 12.3165 109.542 11.6117C108.306 10.8504 106.873 10.4697 105.421 10.5171C104.277 10.4953 103.142 10.7175 102.09 11.1691C101.164 11.5739 100.336 12.1746 99.6632 12.9298C99.0179 13.6689 98.5146 14.5207 98.1784 15.4425C97.8349 16.3798 97.6609 17.3708 97.6645 18.3691V18.9211C97.6665 19.8957 97.8405 20.8623 98.1784 21.7764C98.5171 22.7019 99.0237 23.5569 99.6727 24.2986C100.355 25.0685 101.198 25.6793 102.142 26.0879C103.225 26.5498 104.392 26.7768 105.569 26.7541C106.731 26.776 107.885 26.5488 108.952 26.0879C109.901 25.6696 110.737 25.0338 111.394 24.2319C112.04 23.442 112.487 22.5085 112.697 21.5099H108.619C108.411 22.0064 108.04 22.4174 107.568 22.6758C106.957 23.0146 106.266 23.1792 105.569 23.1517C104.809 23.1841 104.056 22.9921 103.404 22.5997C102.842 22.2182 102.415 21.6684 102.185 21.0293C102.035 20.6316 101.932 20.2181 101.876 19.7968H112.978L112.997 18.3073ZM101.928 17.2841C101.991 16.909 102.094 16.5419 102.238 16.1896C102.476 15.5643 102.902 15.0277 103.456 14.6525C104.046 14.2857 104.732 14.1019 105.426 14.1243C106.098 14.0996 106.761 14.2788 107.33 14.6382C107.857 15.0029 108.259 15.5214 108.481 16.123C108.629 16.4984 108.733 16.8896 108.791 17.2889L101.928 17.2841Z" fill="#0E3221"/>
<path d="M130.314 18.3072C130.327 16.9746 130.022 15.658 129.425 14.4669C128.841 13.3026 127.955 12.3165 126.86 11.6116C125.625 10.8505 124.193 10.4698 122.743 10.5171C121.599 10.4954 120.464 10.7177 119.412 11.1691C118.485 11.5739 117.657 12.1746 116.985 12.9298C116.34 13.6689 115.836 14.5207 115.5 15.4425C115.157 16.3798 114.983 17.3708 114.986 18.3691V18.9211C114.988 19.8957 115.162 20.8623 115.5 21.7764C115.839 22.703 116.347 23.5584 116.999 24.2986C117.682 25.0684 118.525 25.6792 119.469 26.0879C120.551 26.5498 121.719 26.7768 122.895 26.7541C124.058 26.776 125.212 26.5488 126.279 26.0879C127.227 25.6696 128.064 25.0338 128.72 24.2319C129.365 23.4408 129.811 22.5078 130.024 21.5099H125.946C125.733 22.0053 125.361 22.4156 124.889 22.6758C124.281 23.0138 123.591 23.1784 122.895 23.1517C122.135 23.1855 121.382 22.9934 120.73 22.5997C120.167 22.2184 119.739 21.6687 119.507 21.0293C119.357 20.6316 119.254 20.2181 119.198 19.7967H130.314V18.3072ZM119.245 17.2841C119.308 16.908 119.41 16.5396 119.55 16.1848C119.79 15.5591 120.217 15.0224 120.773 14.6477C121.363 14.2798 122.049 14.0959 122.743 14.1195C123.415 14.0948 124.079 14.274 124.647 14.6335C125.173 14.9995 125.575 15.5175 125.798 16.1182C125.942 16.4945 126.044 16.8855 126.103 17.2841H119.245Z" fill="#0E3221"/>
<path d="M147.56 17.5598V26.7681H143.12V17.3076C143.149 16.574 142.89 15.8582 142.397 15.3137C142.148 15.0525 141.846 14.8477 141.511 14.7131C141.176 14.5784 140.816 14.5171 140.455 14.5333C140.084 14.5182 139.713 14.5812 139.367 14.7181C139.021 14.8549 138.708 15.0627 138.447 15.328C138.189 15.6043 137.988 15.9292 137.857 16.2838C137.725 16.6383 137.666 17.0154 137.681 17.3933V26.7681H133.246V11.0641H136.767V14.8711C136.853 14.4647 136.969 14.0654 137.115 13.6767C137.448 12.7206 138.087 11.901 138.933 11.3449C139.827 10.8051 140.858 10.5357 141.902 10.5692H142.092C143.869 10.5692 145.224 11.1466 146.156 12.3014C147.089 13.4562 147.557 15.209 147.56 17.5598Z" fill="#0E3221"/>
<path d="M73.4803 53.6985C71.855 53.7434 70.2407 53.4179 68.7596 52.7468C67.5092 52.1556 66.4081 51.2903 65.5379 50.2151C64.7222 49.2061 64.0952 48.0584 63.6868 46.8269C63.3031 45.6854 63.1023 44.4905 63.0919 43.2863V42.6724C63.0947 41.4027 63.3004 40.1416 63.701 38.9368C64.109 37.7175 64.7453 36.587 65.576 35.6056C66.4535 34.5805 67.5451 33.7602 68.7739 33.2025C70.2124 32.5715 71.772 32.2644 73.3423 32.303C75.02 32.2662 76.6838 32.6146 78.2058 33.3214C79.5609 33.9616 80.7243 34.9462 81.5798 36.1767C82.4432 37.4491 82.9568 38.9261 83.0693 40.4596H78.4818C78.376 39.6989 78.0706 38.9797 77.5967 38.3753C77.1166 37.7911 76.5006 37.3336 75.8026 37.0428C75.0236 36.718 74.1863 36.5561 73.3423 36.5669C72.5119 36.553 71.688 36.7151 70.9249 37.0428C70.2416 37.3428 69.6385 37.7992 69.1641 38.3753C68.6724 38.98 68.3038 39.6752 68.0791 40.4215C67.8186 41.2708 67.6918 42.1554 67.7032 43.0436C67.6925 43.924 67.8194 44.8007 68.0791 45.6419C68.3072 46.3946 68.6843 47.0937 69.1879 47.6977C69.6798 48.2816 70.3049 48.7387 71.0105 49.0302C71.7929 49.3551 72.6333 49.517 73.4803 49.5061C74.7499 49.5466 76.0001 49.187 77.0542 48.4782C77.5284 48.1491 77.9296 47.7256 78.2326 47.2343C78.5356 46.743 78.7338 46.1944 78.8149 45.6229H83.3739C83.218 47.0807 82.7066 48.4778 81.8844 49.6916C81.0377 50.9473 79.8802 51.9621 78.5247 52.6373C76.9529 53.3911 75.2226 53.7552 73.4803 53.6985Z" fill="#0E3221"/>
<path d="M93.5672 53.6982C92.3534 53.719 91.1467 53.5074 90.0124 53.0748C89.0293 52.6907 88.1353 52.1093 87.3855 51.3664C86.6811 50.6557 86.1289 49.8088 85.7628 48.8776C85.3906 47.9353 85.2016 46.9307 85.206 45.9176V45.2799C85.2013 44.2485 85.3952 43.2258 85.7771 42.2676C86.1483 41.3203 86.7159 40.4623 87.4427 39.7502C88.205 39.0094 89.1078 38.4285 90.098 38.0418C92.3525 37.2107 94.8295 37.2107 97.084 38.0418C98.0656 38.4288 98.959 39.0098 99.7108 39.7502C100.428 40.4698 100.995 41.3257 101.376 42.2676C101.766 43.2238 101.963 44.2474 101.957 45.2799V45.9176C101.963 46.9304 101.776 47.935 101.405 48.8776C101.037 49.8091 100.483 50.656 99.7774 51.3664C99.0276 52.1093 98.1337 52.6907 97.1506 53.0748C96.0067 53.5087 94.7904 53.7203 93.5672 53.6982ZM93.5672 49.9483C94.3292 49.9771 95.0832 49.7837 95.7372 49.3915C96.3177 49.011 96.7755 48.4705 97.0554 47.8354C97.3624 47.1222 97.5208 46.3538 97.5208 45.5773C97.5208 44.8008 97.3624 44.0325 97.0554 43.3193C96.759 42.6822 96.2931 42.139 95.7087 41.7489C95.2507 41.4405 94.7312 41.2354 94.1861 41.1478C93.641 41.0603 93.0834 41.0923 92.552 41.2417C92.0205 41.3911 91.5278 41.6543 91.1082 42.013C90.6886 42.3718 90.352 42.8175 90.1218 43.3193C89.7979 44.04 89.6355 44.8229 89.646 45.613C89.6349 46.3772 89.7874 47.135 90.0933 47.8354C90.3676 48.4783 90.8327 49.0215 91.4258 49.3915C92.0716 49.7781 92.8148 49.9713 93.5672 49.9483Z" fill="#0E3221"/>
<path d="M109.738 32.8882L109.714 53.7079H105.24L105.269 36.167H103.461V32.8882H109.738Z" fill="#0E3221"/>
<path d="M121.24 53.6981C120.026 53.719 118.819 53.5074 117.685 53.0747C116.702 52.6906 115.808 52.1092 115.058 51.3663C114.352 50.6569 113.8 49.8097 113.435 48.8775C113.063 47.9353 112.874 46.9306 112.878 45.9175V45.2799C112.874 44.2484 113.068 43.2257 113.449 42.2675C113.821 41.3202 114.388 40.4623 115.115 39.7501C115.876 39.0093 116.777 38.4284 117.766 38.0417C120.022 37.2107 122.5 37.2107 124.756 38.0417C125.737 38.4276 126.629 39.0089 127.378 39.7501C128.099 40.4684 128.667 41.3246 129.049 42.2675C129.436 43.2244 129.633 44.2476 129.629 45.2799V45.9175C129.633 46.9301 129.446 47.9343 129.077 48.8775C128.709 49.8091 128.156 50.6559 127.45 51.3663C126.7 52.1092 125.806 52.6906 124.823 53.0747C123.679 53.5087 122.463 53.7203 121.24 53.6981ZM121.24 49.9482C122.002 49.9771 122.756 49.7836 123.41 49.3914C123.99 49.0109 124.448 48.4705 124.728 47.8353C125.035 47.1221 125.193 46.3538 125.193 45.5773C125.193 44.8008 125.035 44.0324 124.728 43.3192C124.43 42.6832 123.964 42.1404 123.381 41.7488C122.923 41.4405 122.404 41.2354 121.859 41.1478C121.313 41.0602 120.756 41.0922 120.224 41.2416C119.693 41.391 119.2 41.6542 118.781 42.013C118.361 42.3717 118.024 42.8174 117.794 43.3192C117.497 44.0351 117.345 44.8024 117.345 45.5773C117.345 46.3522 117.497 47.1195 117.794 47.8353C118.072 48.4776 118.538 49.0203 119.131 49.3914C119.768 49.7719 120.498 49.9649 121.24 49.9482Z" fill="#0E3221"/>
<path d="M142.135 37.7518V41.5874H141.022C140.507 41.5297 139.985 41.5883 139.496 41.7589C139.006 41.9295 138.562 42.2076 138.194 42.573C137.826 42.9383 137.545 43.3814 137.372 43.8697C137.198 44.358 137.136 44.8791 137.191 45.3944V53.6747H132.746V37.9231H136.272V42.9722C136.368 41.7096 136.817 40.4993 137.567 39.4793C138.476 38.3134 139.808 37.728 141.55 37.728L142.135 37.7518Z" fill="#0E3221"/>
<path d="M150.216 53.6412C148.052 53.6412 146.358 53.197 145.134 52.3087C144.537 51.881 144.05 51.3184 143.711 50.6668C143.373 50.0152 143.194 49.2929 143.187 48.5588H147.132C147.185 48.8213 147.289 49.0706 147.44 49.292C147.59 49.5135 147.783 49.7027 148.008 49.8484C148.693 50.2773 149.496 50.4773 150.302 50.4195C150.969 50.4443 151.632 50.3054 152.234 50.015C152.444 49.9246 152.627 49.7784 152.76 49.5922C152.894 49.4061 152.975 49.1869 152.994 48.9583C153.012 48.7297 152.968 48.5004 152.866 48.295C152.764 48.0896 152.608 47.9159 152.415 47.7926C151.771 47.4505 151.059 47.257 150.33 47.2263L149.136 47.1121C147.299 46.9281 145.924 46.4189 145.01 45.5846C144.562 45.1849 144.206 44.6919 143.969 44.1403C143.731 43.5887 143.617 42.9918 143.635 42.3914C143.6 41.4282 143.882 40.4801 144.439 39.6932C145.013 38.9454 145.789 38.3774 146.675 38.0562C147.719 37.6689 148.827 37.4801 149.94 37.4994C151.901 37.4994 153.487 37.9309 154.699 38.7938C155.295 39.2156 155.78 39.776 156.111 40.4268C156.443 41.0775 156.611 41.7991 156.602 42.5294H152.633C152.596 42.2772 152.507 42.0352 152.374 41.8178C152.241 41.6003 152.065 41.4119 151.858 41.2636C151.273 40.8818 150.58 40.7014 149.883 40.7496C149.311 40.7226 148.744 40.8579 148.246 41.1399C148.058 41.2444 147.902 41.3977 147.794 41.5836C147.686 41.7696 147.63 41.9813 147.632 42.1963C147.627 42.3877 147.673 42.5769 147.766 42.7443C147.859 42.9117 147.995 43.0511 148.16 43.1481C148.695 43.4261 149.282 43.5882 149.883 43.6239L151.077 43.7382C152.946 43.9444 154.401 44.4631 155.441 45.2943C155.947 45.6921 156.351 46.2037 156.622 46.7876C156.892 47.3715 157.021 48.011 156.997 48.654C157.019 49.6066 156.726 50.5398 156.164 51.3094C155.552 52.0989 154.726 52.6967 153.785 53.0321C152.643 53.4531 151.433 53.6596 150.216 53.6412Z" fill="#0E3221"/>
</svg>
