<svg width="65" height="65" viewBox="0 0 65 65" fill="none" xmlns="http://www.w3.org/2000/svg">
<path fill-rule="evenodd" clip-rule="evenodd" d="M32.6409 3.3855H32.3592C29.9244 3.3855 27.8959 3.3855 26.2871 3.60216C24.5863 3.82966 23.0506 4.33341 21.8184 5.56571C20.5834 6.80071 20.0796 8.33633 19.8521 10.0345C19.6977 11.1909 19.6517 13.9507 19.6409 16.3178C14.1646 16.4992 10.874 17.1384 8.59085 19.4242C5.41669 22.5957 5.41669 27.7036 5.41669 37.9167C5.41669 48.1299 5.41669 53.2378 8.59085 56.4092C11.7623 59.5834 16.8702 59.5834 27.0834 59.5834H37.9167C48.1298 59.5834 53.2377 59.5834 56.4092 56.4092C59.5834 53.2378 59.5834 48.1299 59.5834 37.9167C59.5834 27.7036 59.5834 22.5957 56.4092 19.4242C54.1261 17.1384 50.8354 16.4992 45.3592 16.3205C45.3484 13.9507 45.305 11.1909 45.1479 10.0372C44.9204 8.33633 44.4167 6.80071 43.1817 5.56841C41.9494 4.33341 40.4138 3.82966 38.7129 3.60216C37.1042 3.3855 35.0729 3.3855 32.6409 3.3855ZM41.2967 16.2555C41.2831 13.9615 41.2452 11.4942 41.1234 10.5761C40.9527 9.32758 40.6629 8.79133 40.3109 8.43925C39.9588 8.08716 39.4225 7.79737 38.1713 7.62675C36.8659 7.45341 35.1109 7.448 32.5 7.448C29.8892 7.448 28.1342 7.45341 26.8261 7.62946C25.5775 7.79737 25.0413 8.08716 24.6892 8.44196C24.3371 8.79404 24.0473 9.32758 23.8767 10.5761C23.7548 11.497 23.7142 13.9615 23.7034 16.2555C24.7623 16.2501 25.8917 16.2501 27.0834 16.2501H37.9167C39.1111 16.2501 40.2377 16.2501 41.2967 16.2555ZM32.5 25.0522C33.0387 25.0522 33.5554 25.2662 33.9363 25.6471C34.3173 26.028 34.5313 26.5447 34.5313 27.0834V27.1105C37.4806 27.8526 39.9479 30.179 39.9479 33.402C39.9479 33.9407 39.7339 34.4573 39.353 34.8383C38.9721 35.2192 38.4554 35.4332 37.9167 35.4332C37.378 35.4332 36.8613 35.2192 36.4804 34.8383C36.0994 34.4573 35.8854 33.9407 35.8854 33.402C35.8854 32.362 34.7317 30.9211 32.5 30.9211C30.2684 30.9211 29.1146 32.362 29.1146 33.402C29.1146 34.442 30.2684 35.8855 32.5 35.8855C36.2511 35.8855 39.9479 38.4855 39.9479 42.4315C39.9479 45.6545 37.4806 47.9782 34.5313 48.723V48.7501C34.5313 49.2888 34.3173 49.8055 33.9363 50.1864C33.5554 50.5673 33.0387 50.7813 32.5 50.7813C31.9613 50.7813 31.4446 50.5673 31.0637 50.1864C30.6828 49.8055 30.4688 49.2888 30.4688 48.7501V48.723C27.5194 47.9809 25.0521 45.6545 25.0521 42.4315C25.0521 41.8928 25.2661 41.3762 25.647 40.9952C26.028 40.6143 26.5446 40.4003 27.0834 40.4003C27.6221 40.4003 28.1387 40.6143 28.5197 40.9952C28.9006 41.3762 29.1146 41.8928 29.1146 42.4315C29.1146 43.4715 30.2684 44.9124 32.5 44.9124C34.7317 44.9124 35.8854 43.4715 35.8854 42.4315C35.8854 41.3915 34.7317 39.948 32.5 39.948C28.749 39.948 25.0521 37.348 25.0521 33.402C25.0521 30.179 27.5194 27.8526 30.4688 27.1105V27.0834C30.4688 26.5447 30.6828 26.028 31.0637 25.6471C31.4446 25.2662 31.9613 25.0522 32.5 25.0522Z" fill="#00FC7E"/>
</svg>
