<svg width="234" height="213" viewBox="0 0 234 213" fill="none" xmlns="http://www.w3.org/2000/svg">
<g clip-path="url(#clip0_291_3)">
<path d="M201.662 19.5856L5.5907 76.5979L10.7841 94.3868L206.856 37.3745L201.662 19.5856Z" fill="#3D5647"/>
<path d="M29.0163 158.309L0.116875 59.3196C-0.097377 58.5857 -0.0107182 57.7969 0.357774 57.1268C0.726267 56.4566 1.34641 55.96 2.08179 55.7462L193.4 0.115911C194.135 -0.0971921 194.925 -0.0104144 195.597 0.357206C196.268 0.724827 196.766 1.34325 196.981 2.07673L222.583 89.7739L221.791 90.0043L196.189 2.30713C196.035 1.78343 195.679 1.34195 195.2 1.07941C194.72 0.816861 194.156 0.754654 193.631 0.906424L2.31261 56.5367C1.78733 56.6895 1.34437 57.0442 1.08116 57.5229C0.817956 58.0016 0.756057 58.565 0.909087 59.0892L29.8085 158.078L29.0163 158.309Z" fill="#3D5647"/>
<path d="M180.238 90.1812C179.658 90.1806 179.093 89.9924 178.629 89.6448C178.164 89.2972 177.825 88.8089 177.662 88.2529L172.815 71.65C172.617 70.9686 172.698 70.2365 173.04 69.6145C173.382 68.9925 173.957 68.5312 174.64 68.3319L191.276 63.4945C191.959 63.2968 192.693 63.3775 193.316 63.7189C193.939 64.0603 194.401 64.6346 194.601 65.3156L199.448 81.9185C199.646 82.6 199.565 83.332 199.223 83.9541C198.881 84.5761 198.306 85.0374 197.624 85.2366L180.987 90.074C180.744 90.145 180.492 90.1811 180.238 90.1812Z" fill="#00FC7E"/>
<path d="M28.5693 59.6257C28.5194 59.4551 28.4602 59.2874 28.3918 59.1233C27.9266 57.9966 27.0607 57.0812 25.9603 56.553C24.8599 56.0248 23.6028 55.921 22.4304 56.2617C21.258 56.6023 20.2531 57.3633 19.6088 58.3985C18.9646 59.4336 18.7263 60.6699 18.9398 61.8697C18.9698 62.0447 19.0098 62.218 19.0595 62.3885C19.3608 63.4148 19.9871 64.3161 20.8446 64.9574C21.7022 65.5987 22.7448 65.9456 23.8164 65.946C24.2843 65.947 24.7498 65.8804 25.1986 65.7483C26.4581 65.381 27.5203 64.5302 28.1522 63.3824C28.7841 62.2347 28.9341 60.8836 28.5693 59.6257ZM24.9675 64.9578C23.9171 65.262 22.7886 65.1381 21.8296 64.6133C20.8706 64.0884 20.1593 63.2054 19.8516 62.1579C19.8033 61.9873 19.7647 61.8141 19.736 61.6391C19.5812 60.6506 19.7926 59.6396 20.3305 58.7953C20.8684 57.951 21.6961 57.3311 22.6587 57.0515C23.6213 56.772 24.653 56.852 25.5609 57.2765C26.4687 57.701 27.1906 58.441 27.5914 59.358C27.6661 59.5191 27.7282 59.6856 27.7771 59.8563C28.0816 60.9046 27.9567 62.0306 27.4299 62.9872C26.9031 63.9437 26.0175 64.6524 24.9675 64.9578Z" fill="#00FC7E"/>
<path d="M16.4263 63.1544C16.1623 62.2495 16.1876 61.2849 16.4988 60.395C16.81 59.5052 17.3916 58.7344 18.1625 58.1899C17.4403 58.1548 16.7201 58.2924 16.0619 58.5913C15.4037 58.8903 14.8267 59.3418 14.3787 59.9083C13.9308 60.4749 13.6251 61.1401 13.4869 61.8484C13.3488 62.5568 13.3822 63.2879 13.5845 63.9807C13.7868 64.6736 14.152 65.3082 14.6498 65.8316C15.1476 66.3551 15.7635 66.7522 16.4462 66.99C17.1289 67.2278 17.8587 67.2994 18.5748 67.1987C19.2908 67.098 19.9724 66.828 20.5627 66.4112C19.6194 66.3653 18.714 66.0268 17.9726 65.443C17.2311 64.8593 16.6906 64.0592 16.4263 63.1544Z" fill="#00FC7E"/>
<path d="M144.68 83.5604C144.592 83.2453 144.443 82.9505 144.241 82.6931C144.039 82.4356 143.788 82.2203 143.503 82.0597C143.217 81.8991 142.903 81.7962 142.577 81.757C142.252 81.7177 141.922 81.7429 141.606 81.831L114.216 89.4771L111.266 90.3006H129.79L132.74 89.4771L142.951 86.6279C143.588 86.4494 144.127 86.0261 144.452 85.451C144.776 84.8759 144.858 84.1959 144.68 83.5604Z" fill="#CCCCCC"/>
<path d="M125.301 77.8496C125.123 77.2141 124.699 76.6753 124.122 76.3518C123.546 76.0283 122.865 75.9465 122.228 76.1243L81.1272 87.5956C80.5528 87.7579 80.0555 88.1198 79.725 88.6158C79.3944 89.1118 79.2522 89.7094 79.3242 90.3007H89.9644L92.9183 89.4773L123.573 80.9212C124.21 80.7421 124.75 80.3181 125.074 79.7422C125.398 79.1663 125.48 78.4856 125.301 77.8496Z" fill="#CCCCCC"/>
<path d="M231.112 89.4763H31.8383C31.0727 89.4772 30.3386 89.7811 29.7971 90.3214C29.2557 90.8618 28.9512 91.5944 28.9503 92.3585V210.118C28.9511 210.882 29.2557 211.615 29.7971 212.155C30.3385 212.695 31.0726 212.999 31.8383 213H231.112C231.878 212.999 232.612 212.695 233.153 212.155C233.695 211.615 233.999 210.882 234 210.118V92.3585C233.999 91.5944 233.695 90.8618 233.153 90.3215C232.612 89.7812 231.878 89.4772 231.112 89.4763ZM233.175 210.118C233.175 210.664 232.957 211.187 232.57 211.573C232.184 211.959 231.659 212.176 231.112 212.177H31.8383C31.2913 212.176 30.7667 211.959 30.3799 211.573C29.9931 211.187 29.7757 210.664 29.7755 210.118V92.3585C29.7757 91.8126 29.9931 91.2891 30.3799 90.9031C30.7667 90.517 31.2913 90.3 31.8383 90.2998H231.112C231.659 90.3 232.184 90.517 232.57 90.9031C232.957 91.2891 233.175 91.8126 233.175 92.3585V210.118Z" fill="#3D5647"/>
<path d="M51.2279 105.535C50.2487 105.535 49.2915 105.245 48.4773 104.703C47.6631 104.16 47.0286 103.388 46.6538 102.485C46.2791 101.582 46.1811 100.589 46.3721 99.6303C46.5631 98.6719 47.0347 97.7915 47.7271 97.1005C48.4195 96.4095 49.3016 95.9389 50.262 95.7483C51.2224 95.5576 52.2178 95.6555 53.1225 96.0294C54.0272 96.4034 54.8004 97.0367 55.3444 97.8492C55.8884 98.6618 56.1788 99.617 56.1788 100.594C56.1773 101.904 55.6552 103.16 54.727 104.086C53.7989 105.013 52.5405 105.534 51.2279 105.535ZM51.2279 96.4768C50.4119 96.4768 49.6142 96.7183 48.9357 97.1707C48.2573 97.6232 47.7285 98.2662 47.4162 99.0186C47.1039 99.771 47.0222 100.599 47.1814 101.398C47.3406 102.196 47.7335 102.93 48.3105 103.506C48.8875 104.082 49.6227 104.474 50.423 104.633C51.2233 104.791 52.0528 104.71 52.8067 104.398C53.5606 104.087 54.205 103.559 54.6583 102.882C55.1116 102.205 55.3536 101.409 55.3536 100.594C55.3524 99.5026 54.9173 98.4561 54.1439 97.6842C53.3704 96.9122 52.3217 96.478 51.2279 96.4768Z" fill="#00FC7E"/>
<path d="M43.5325 100.594C43.5326 99.6519 43.8273 98.7329 44.3755 97.9654C44.9237 97.198 45.6982 96.6203 46.5909 96.3128C45.9073 96.0775 45.1773 96.0085 44.4616 96.1118C43.7459 96.215 43.0653 96.4874 42.4765 96.9063C41.8877 97.3252 41.4077 97.8785 41.0765 98.52C40.7453 99.1615 40.5725 99.8727 40.5725 100.594C40.5725 101.316 40.7453 102.027 41.0765 102.669C41.4077 103.31 41.8877 103.864 42.4765 104.282C43.0653 104.701 43.7459 104.974 44.4616 105.077C45.1773 105.18 45.9073 105.111 46.5909 104.876C45.6982 104.568 44.9237 103.991 44.3755 103.223C43.8273 102.456 43.5326 101.537 43.5325 100.594Z" fill="#00FC7E"/>
<path d="M71.297 158.971C70.3126 158.97 69.3688 158.579 68.6727 157.884C67.9766 157.19 67.585 156.248 67.5839 155.265V144.148C67.5839 143.165 67.9751 142.223 68.6714 141.528C69.3678 140.833 70.3122 140.442 71.297 140.442C72.2818 140.442 73.2263 140.833 73.9226 141.528C74.619 142.223 75.0102 143.165 75.0102 144.148V155.265C75.0091 156.248 74.6175 157.19 73.9214 157.884C73.2253 158.579 72.2815 158.97 71.297 158.971Z" fill="#00FC7E"/>
<path d="M81.1988 158.971C80.2143 158.97 79.2705 158.579 78.5744 157.884C77.8783 157.19 77.4867 156.248 77.4856 155.265V144.148C77.4856 143.165 77.8768 142.223 78.5731 141.528C79.2695 140.833 80.214 140.442 81.1988 140.442C82.1835 140.442 83.128 140.833 83.8244 141.528C84.5207 142.223 84.9119 143.165 84.9119 144.148V155.265C84.9108 156.248 84.5192 157.19 83.8231 157.884C83.127 158.579 82.1832 158.97 81.1988 158.971Z" fill="#00FC7E"/>
<path d="M91.1006 158.971C90.1162 158.97 89.1724 158.579 88.4763 157.884C87.7802 157.19 87.3886 156.248 87.3875 155.265V144.148C87.3875 143.165 87.7787 142.223 88.475 141.528C89.1714 140.833 90.1158 140.442 91.1006 140.442C92.0854 140.442 93.0299 140.833 93.7262 141.528C94.4226 142.223 94.8138 143.165 94.8138 144.148V155.265C94.8127 156.248 94.4211 157.19 93.725 157.884C93.0289 158.579 92.0851 158.97 91.1006 158.971Z" fill="#00FC7E"/>
<path d="M106.366 158.971C105.381 158.97 104.438 158.579 103.742 157.884C103.045 157.19 102.654 156.248 102.653 155.265V144.148C102.653 143.165 103.044 142.223 103.74 141.528C104.437 140.833 105.381 140.442 106.366 140.442C107.351 140.442 108.295 140.833 108.991 141.528C109.688 142.223 110.079 143.165 110.079 144.148V155.265C110.078 156.248 109.686 157.19 108.99 157.884C108.294 158.579 107.35 158.97 106.366 158.971Z" fill="#00FC7E"/>
<path d="M116.268 158.971C115.283 158.97 114.339 158.579 113.643 157.884C112.947 157.19 112.556 156.248 112.554 155.265V144.148C112.554 143.165 112.946 142.223 113.642 141.528C114.338 140.833 115.283 140.442 116.268 140.442C117.252 140.442 118.197 140.833 118.893 141.528C119.59 142.223 119.981 143.165 119.981 144.148V155.265C119.98 156.248 119.588 157.19 118.892 157.884C118.196 158.579 117.252 158.97 116.268 158.971Z" fill="#00FC7E"/>
<path d="M126.169 158.971C125.185 158.97 124.241 158.579 123.545 157.884C122.849 157.19 122.457 156.248 122.456 155.265V144.148C122.456 143.165 122.848 142.223 123.544 141.528C124.24 140.833 125.185 140.442 126.169 140.442C127.154 140.442 128.099 140.833 128.795 141.528C129.491 142.223 129.883 143.165 129.883 144.148V155.265C129.882 156.248 129.49 157.19 128.794 157.884C128.098 158.579 127.154 158.97 126.169 158.971Z" fill="#00FC7E"/>
<path d="M141.435 158.971C140.45 158.97 139.506 158.579 138.81 157.884C138.114 157.19 137.723 156.248 137.721 155.265V144.148C137.721 143.165 138.113 142.223 138.809 141.528C139.505 140.833 140.45 140.442 141.435 140.442C142.419 140.442 143.364 140.833 144.06 141.528C144.757 142.223 145.148 143.165 145.148 144.148V155.265C145.147 156.248 144.755 157.19 144.059 157.884C143.363 158.579 142.419 158.97 141.435 158.971Z" fill="#00FC7E"/>
<path d="M151.336 158.971C150.352 158.97 149.408 158.579 148.712 157.884C148.016 157.19 147.624 156.248 147.623 155.265V144.148C147.623 143.165 148.015 142.223 148.711 141.528C149.407 140.833 150.352 140.442 151.336 140.442C152.321 140.442 153.266 140.833 153.962 141.528C154.658 142.223 155.05 143.165 155.05 144.148V155.265C155.049 156.248 154.657 157.19 153.961 157.884C153.265 158.579 152.321 158.97 151.336 158.971Z" fill="#00FC7E"/>
<path d="M161.238 158.971C160.254 158.97 159.31 158.579 158.614 157.884C157.918 157.19 157.526 156.248 157.525 155.265V144.148C157.525 143.165 157.916 142.223 158.613 141.528C159.309 140.833 160.253 140.442 161.238 140.442C162.223 140.442 163.167 140.833 163.864 141.528C164.56 142.223 164.951 143.165 164.951 144.148V155.265C164.95 156.248 164.559 157.19 163.863 157.884C163.166 158.579 162.223 158.97 161.238 158.971Z" fill="#00FC7E"/>
<path d="M176.503 158.971C175.519 158.97 174.575 158.579 173.879 157.884C173.183 157.19 172.791 156.248 172.79 155.265V144.148C172.79 143.165 173.181 142.223 173.878 141.528C174.574 140.833 175.519 140.442 176.503 140.442C177.488 140.442 178.433 140.833 179.129 141.528C179.825 142.223 180.217 143.165 180.217 144.148V155.265C180.215 156.248 179.824 157.19 179.128 157.884C178.432 158.579 177.488 158.97 176.503 158.971Z" fill="#00FC7E"/>
<path d="M186.405 158.971C185.421 158.97 184.477 158.579 183.781 157.884C183.085 157.19 182.693 156.248 182.692 155.265V144.148C182.692 143.165 183.083 142.223 183.78 141.528C184.476 140.833 185.421 140.442 186.405 140.442C187.39 140.442 188.335 140.833 189.031 141.528C189.727 142.223 190.118 143.165 190.118 144.148V155.265C190.117 156.248 189.726 157.19 189.03 157.884C188.334 158.579 187.39 158.97 186.405 158.971Z" fill="#00FC7E"/>
<path d="M196.307 158.971C195.323 158.97 194.379 158.579 193.683 157.884C192.987 157.19 192.595 156.248 192.594 155.265V144.148C192.594 143.165 192.985 142.223 193.681 141.528C194.378 140.833 195.322 140.442 196.307 140.442C197.292 140.442 198.236 140.833 198.933 141.528C199.629 142.223 200.02 143.165 200.02 144.148V155.265C200.019 156.248 199.628 157.19 198.931 157.884C198.235 158.579 197.291 158.97 196.307 158.971Z" fill="#00FC7E"/>
<path d="M96.4715 200.214H43.0677C42.406 200.214 41.7714 199.952 41.3035 199.485C40.8356 199.018 40.5728 198.384 40.5728 197.724C40.5728 197.064 40.8356 196.43 41.3035 195.963C41.7714 195.496 42.406 195.234 43.0677 195.234H96.4715C97.1332 195.234 97.7678 195.496 98.2357 195.963C98.7036 196.43 98.9665 197.064 98.9665 197.724C98.9665 198.384 98.7036 199.018 98.2357 199.485C97.7678 199.952 97.1332 200.214 96.4715 200.214Z" fill="#E6E6E6"/>
<path d="M79.3496 189.509H60.1896C59.5279 189.509 58.8932 189.246 58.4253 188.779C57.9574 188.312 57.6946 187.679 57.6946 187.019C57.6946 186.358 57.9574 185.725 58.4253 185.258C58.8932 184.791 59.5279 184.529 60.1896 184.529H79.3496C80.0114 184.529 80.646 184.791 81.1139 185.258C81.5818 185.725 81.8446 186.358 81.8446 187.019C81.8446 187.679 81.5818 188.312 81.1139 188.779C80.646 189.246 80.0114 189.509 79.3496 189.509Z" fill="#E6E6E6"/>
<path d="M233.026 114.091H29.627V114.914H233.026V114.091Z" fill="#3D5647"/>
</g>
<defs>
<clipPath id="clip0_291_3">
<rect width="234" height="213" fill="white"/>
</clipPath>
</defs>
</svg>
