<svg width="506" height="308" viewBox="0 0 506 308" fill="none" xmlns="http://www.w3.org/2000/svg">
<path d="M399.945 209.174H386.724L386.675 209.126C384.325 206.631 383.267 203.12 383.851 199.746C384.037 198.653 384.387 197.595 384.896 196.598L388.916 188.73L387.321 160.549C387.294 160.027 387.473 159.532 387.83 159.147C388.187 158.769 388.675 158.556 389.197 158.556H391.671C392.688 158.556 393.513 159.353 393.554 160.364L394.633 188.215L400.199 196.915C400.673 197.657 401.058 198.447 401.333 199.265C402.426 202.433 402.027 205.875 400.234 208.707L399.938 209.167H399.945V209.174Z" fill="#3D5647"/>
<path d="M398.804 207.223C398.681 207.422 398.461 207.539 398.227 207.539H388.167C387.974 207.539 387.782 207.456 387.658 207.312C385.961 205.381 385.212 202.845 385.507 200.378C385.542 200.11 385.741 199.884 386.002 199.815C388.105 199.258 390.641 198.942 393.369 198.942C395.506 198.942 397.519 199.142 399.306 199.492C399.553 199.54 399.753 199.719 399.821 199.959C400.536 202.378 400.199 205.031 398.811 207.223H398.804Z" fill="#00FC7E"/>
<path d="M504.939 215.132H0.687179C0.30923 215.132 0 214.823 0 214.445C0 214.067 0.30923 213.758 0.687179 213.758H504.939C505.317 213.758 505.626 214.067 505.626 214.445C505.626 214.823 505.317 215.132 504.939 215.132Z" fill="#3D5647"/>
<path d="M148.053 87.4957C140.666 85.2829 135.814 79.6756 137.223 74.9753C138.632 70.275 145.764 68.2547 153.152 70.4674C156.113 71.3126 158.835 72.8519 161.082 74.9615L192.273 84.7263L187.38 99.267L157.151 88.0935C154.114 88.6226 150.994 88.4165 148.053 87.4888L148.053 87.4957Z" fill="#A0616A"/>
<path d="M286.416 91.3164L286.794 116.996C286.794 116.996 254.51 116.57 243.213 117.457C231.916 118.35 161.514 92.5808 161.514 92.5808L173.21 75.9991L250.875 94.7454L286.416 91.3095V91.3164Z" fill="white"/>
<path d="M150.355 56.394H145.544V121.676H150.355V56.394Z" fill="#00FC7E"/>
<path d="M167.72 214.445H139.896L139.793 214.335C134.845 209.078 132.619 201.698 133.842 194.592C134.233 192.297 134.969 190.071 136.041 187.975L144.507 171.421L141.147 112.117C141.085 111.018 141.469 109.973 142.225 109.176C142.981 108.379 144.005 107.939 145.105 107.939H150.307C152.444 107.939 154.189 109.609 154.272 111.746L156.532 170.363L168.256 188.669C169.259 190.236 170.063 191.899 170.647 193.617C172.942 200.282 172.104 207.525 168.338 213.483L167.72 214.452L167.72 214.445Z" fill="#3D5647"/>
<path d="M165.328 210.343C165.067 210.755 164.607 211.009 164.112 211.009H142.933C142.528 211.009 142.129 210.837 141.861 210.535C138.288 206.467 136.714 201.141 137.333 195.946C137.401 195.376 137.821 194.909 138.377 194.764C142.796 193.596 148.135 192.923 153.88 192.923C158.374 192.923 162.621 193.342 166.373 194.077C166.888 194.18 167.314 194.551 167.459 195.053C168.957 200.138 168.249 205.725 165.328 210.343Z" fill="#00FC7E"/>
<path d="M265.801 55.0197L269.924 83.1941L236.939 86.63L239.001 50.2095L265.801 55.0197Z" fill="#A0616A"/>
<path d="M234.445 63.4098C246.73 63.4098 256.689 53.4509 256.689 41.1659C256.689 28.8808 246.73 18.9219 234.445 18.9219C222.16 18.9219 212.201 28.8808 212.201 41.1659C212.201 53.4509 222.16 63.4098 234.445 63.4098Z" fill="#A0616A"/>
<path d="M165.136 142.092C158.841 136.443 150.746 135.172 147.049 139.254C143.352 143.336 145.455 151.225 151.75 156.873C154.23 159.168 157.24 160.818 160.532 161.69L187.504 185.281L198.629 172.149L170.86 150.29C169.651 147.122 167.685 144.312 165.136 142.092Z" fill="#A0616A"/>
<path d="M239.001 79.7578L272.673 74.9475L292.601 90.0654L294.662 173.214L313.903 305.84L186.088 307.214C186.088 307.214 195.709 221.317 200.519 216.506C205.329 211.696 208.765 189.706 208.765 189.706L218.385 94.8757L239.001 79.7578Z" fill="white"/>
<path d="M226.288 94.532C226.288 94.532 208.421 93.1576 204.298 105.527C200.175 117.896 195.365 158.44 195.365 158.44L184.37 159.814L174.75 149.506L164.442 174.245C164.442 174.245 200.862 214.101 214.606 196.234C228.35 178.368 226.288 94.532 226.288 94.532Z" fill="white"/>
<path d="M272.329 52.6486C272.329 52.6486 272.329 30.6246 274.391 23.7528C276.452 16.881 264.77 9.32202 261.334 2.45024C257.898 -4.42155 236.596 5.19895 227.663 6.57331C218.729 7.94767 219.416 13.4451 213.919 22.3784C208.422 31.3117 219.416 45.0553 227.663 46.4297C235.909 47.804 233.16 53.9886 238.815 60.8604C244.471 67.7322 262.544 60.8604 262.544 60.8604L264.77 64.2963C264.77 64.2963 259.96 83.5373 268.893 100.03L292.257 106.214C285.386 85.5989 292.944 85.5989 297.253 74.9476C301.562 64.2963 272.329 52.6486 272.329 52.6486Z" fill="#3D5647"/>
<path d="M435.747 208.48H423.501V187.947H435.747C437.142 187.947 438.262 186.813 438.262 185.419C438.262 184.024 437.135 182.91 435.747 182.903H350.372C348.977 182.903 347.857 184.037 347.857 185.432C347.857 186.827 348.984 187.94 350.372 187.947H360.817V208.48H350.372C348.977 208.48 347.857 209.614 347.857 211.009C347.857 212.404 348.984 213.517 350.372 213.524H435.747C437.142 213.524 438.262 212.39 438.262 210.995C438.262 209.6 437.135 208.487 435.747 208.48ZM365.861 208.48L371.619 193.142L418.451 187.947V208.48H365.861Z" fill="#CFCFCF"/>
</svg>
