<svg width="128" height="109" viewBox="0 0 128 109" fill="none" xmlns="http://www.w3.org/2000/svg">
<path d="M100.291 21.4531C99.2284 18.5362 97.5396 15.8877 95.3432 13.6941C93.1468 11.5004 90.4963 9.81487 87.5781 8.7562C82.125 6.99683 77.1625 6.99683 67.0875 6.99683H36.8312C26.8375 6.99683 21.7906 6.99683 16.4219 8.6562C13.4983 9.7232 10.8446 11.4189 8.64808 13.6236C6.45151 15.8282 4.76561 18.4881 3.70937 21.4156C2 26.8343 2 31.8312 2 41.825V72.1156C2 82.1593 2 87.1218 3.65938 92.5406C4.72164 95.4574 6.41041 98.1059 8.60679 100.3C10.8032 102.493 13.4537 104.179 16.3719 105.237C21.7906 106.947 26.7875 106.947 36.7969 106.947H67.1187C77.1625 106.947 82.1594 106.947 87.5438 105.287C90.4713 104.226 93.1299 102.534 95.3319 100.332C97.534 98.1299 99.2256 95.4712 100.287 92.5437C101.997 87.125 101.997 82.1281 101.997 72.1187V41.9093C101.997 31.8656 101.997 26.8687 100.287 21.45L100.291 21.4531ZM74.5906 40.7562L70.7 44.6312C70.3204 44.9769 69.8271 45.171 69.3138 45.1768C68.8004 45.1825 68.3029 44.9995 67.9156 44.6625C64.1572 41.5058 59.4113 39.7664 54.5031 39.7468C50.45 39.7468 46.4125 41.0812 46.4125 44.7937C46.4125 48.5375 50.7406 49.7906 55.7375 51.6625C64.4937 54.5937 71.7375 58.2531 71.7375 66.8312C71.7375 76.175 64.4937 82.5875 52.6625 83.2875L51.5719 88.3C51.477 88.756 51.2278 89.1653 50.8664 89.459C50.5049 89.7527 50.0533 89.9129 49.5875 89.9125H42.1156L41.7406 89.8812C41.2087 89.7593 40.7457 89.434 40.4508 88.9749C40.1558 88.5158 40.0523 87.9594 40.1625 87.425L41.3344 82.1343C36.8404 81.0063 32.7068 78.7546 29.3219 75.5906V75.5406C28.9467 75.165 28.736 74.6558 28.736 74.125C28.736 73.5941 28.9467 73.0849 29.3219 72.7093L33.4875 68.6718C33.8686 68.3196 34.3685 68.1239 34.8875 68.1239C35.4065 68.1239 35.9064 68.3196 36.2875 68.6718C40.1024 72.2728 45.1702 74.2457 50.4156 74.1718C55.8344 74.1718 59.45 71.8781 59.45 68.2468C59.45 64.6156 55.7875 63.6718 48.8719 61.0843C41.5312 58.4625 34.5812 54.7531 34.5812 46.0781C34.5812 36.0031 42.9469 31.0875 52.875 30.6312L53.9156 25.5031C54.0116 25.0457 54.2643 24.6362 54.63 24.3452C54.9957 24.0543 55.4515 23.9001 55.9187 23.9093H63.325L63.7469 23.9593C64.0047 24.0132 64.2493 24.1174 64.4666 24.2661C64.684 24.4147 64.8699 24.6048 65.0136 24.8255C65.1574 25.0462 65.2561 25.2931 65.3042 25.552C65.3522 25.8109 65.3487 26.0768 65.2937 26.3343L64.1719 32.0468C67.9496 33.2946 71.4526 35.2562 74.4906 37.825L74.5875 37.9218C75.3688 38.7531 75.3688 40.0062 74.5875 40.7531L74.5906 40.7562Z" stroke="#333333" stroke-width="4"/>
<path d="M88.6639 21.4999L89.8382 20.822C89.6584 20.5105 89.3623 20.2833 89.0149 20.1902C88.6675 20.0971 88.2974 20.1458 87.986 20.3257L88.6639 21.4999ZM87.986 20.3257L75.0688 27.7834L76.4248 30.1319L89.3419 22.6742L87.986 20.3257ZM87.4897 22.1779L94.9474 35.095L97.2959 33.7391L89.8382 20.822L87.4897 22.1779ZM87.3525 21.1485L75.4411 65.6028L78.0639 66.3055L89.9753 21.8513L87.3525 21.1485Z" fill="#BDBDBD"/>
</svg>
