<svg width="97" height="91" viewBox="0 0 97 91" fill="none" xmlns="http://www.w3.org/2000/svg">
<path d="M87.8898 88H3V3.11023" stroke="#333333" stroke-width="5" stroke-linecap="round" stroke-linejoin="round"/>
<path d="M42.4133 39.4915V45.5551M3.02039 75.9214H13.9348C49.8876 75.9214 78.8715 62.2299 86.5115 24.3326M62.1199 22.8168C62.1379 19.469 61.3029 16.1718 59.6937 13.2361C58.0845 10.3004 55.754 7.823 52.9221 6.03746C50.0902 4.25192 46.8502 3.21711 43.5076 3.03061C40.1649 2.84411 36.8299 3.51208 33.817 4.97152C30.804 6.43095 28.2124 8.63376 26.2866 11.3722C24.3608 14.1107 23.1642 17.2945 22.8098 20.6235C22.4553 23.9525 22.9545 27.3169 24.2605 30.3995C25.5664 33.4821 27.636 36.1813 30.2741 38.2424V39.4915C30.2741 41.0997 30.9129 42.642 32.05 43.7791C33.1872 44.9163 34.7295 45.5551 36.3376 45.5551H48.4647C50.0729 45.5551 51.6152 44.9163 52.7523 43.7791C53.8895 42.642 54.5283 41.0997 54.5283 39.4915V38.2424C56.8829 36.4174 58.7905 34.0795 60.106 31.4065C61.4214 28.7336 62.1102 25.7959 62.1199 22.8168Z" stroke="#333333" stroke-width="5" stroke-linecap="round" stroke-linejoin="round"/>
<path d="M75.0391 31.7384L86.5235 24.3328L93.9291 35.8212" stroke="#333333" stroke-width="5" stroke-linecap="round" stroke-linejoin="round"/>
<path d="M49.9926 25.8486C49.5905 25.8486 49.2049 25.6888 48.9207 25.4046C48.6364 25.1203 48.4767 24.7347 48.4767 24.3327C48.4767 23.9306 48.6364 23.5451 48.9207 23.2608C49.2049 22.9765 49.5905 22.8168 49.9926 22.8168M49.9926 25.8486C50.3946 25.8486 50.7802 25.6888 51.0645 25.4046C51.3487 25.1203 51.5084 24.7347 51.5084 24.3327C51.5084 23.9306 51.3487 23.5451 51.0645 23.2608C50.7802 22.9765 50.3946 22.8168 49.9926 22.8168M34.8256 25.8486C34.4235 25.8486 34.038 25.6888 33.7537 25.4046C33.4694 25.1203 33.3097 24.7347 33.3097 24.3327C33.3097 23.9306 33.4694 23.5451 33.7537 23.2608C34.038 22.9765 34.4235 22.8168 34.8256 22.8168M34.8256 25.8486C35.2276 25.8486 35.6132 25.6888 35.8975 25.4046C36.1818 25.1203 36.3415 24.7347 36.3415 24.3327C36.3415 23.9306 36.1818 23.5451 35.8975 23.2608C35.6132 22.9765 35.2276 22.8168 34.8256 22.8168" stroke="#333333" stroke-width="5"/>
</svg>
