<svg width="136" height="135" viewBox="0 0 136 135" fill="none" xmlns="http://www.w3.org/2000/svg">
<path d="M48.1699 8.70117V22.2882H87.7613V8.70117H48.1699ZM51.9301 27.2162C51.7552 27.9809 51.5183 28.6039 51.2014 29.045C50.4902 30.0338 49.3377 30.7837 46.0341 30.7837C40.3262 30.7837 35.2214 32.3293 31.418 35.0272C27.6146 37.7251 25.0829 41.724 25.0829 46.2333V112.522C25.0829 121.049 32.0402 127.98 40.6097 127.98H97.1772C105.746 127.98 112.703 121.049 112.703 112.522V46.2333C112.703 41.724 110.179 37.743 106.452 35.0436C102.724 32.3441 97.752 30.7837 92.2905 30.7837C87.8678 30.7837 86.0314 29.864 85.1692 28.8884C84.7955 28.4655 84.5252 27.9134 84.3328 27.2159H79.2649C79.5492 28.9715 80.1579 30.6798 81.4511 32.1429C83.6001 34.5748 87.1545 35.7104 92.2908 35.7104C96.7898 35.7104 100.785 37.0309 103.537 39.0232C106.288 41.0155 107.752 43.532 107.752 46.233V112.522C107.752 118.416 103.101 123.052 97.1769 123.052H40.6097C34.6859 123.052 30.035 118.416 30.035 112.522V46.2333C30.035 43.532 31.4805 41.0337 34.2913 39.0403C37.102 37.0462 41.2393 35.7112 46.0338 35.7112C50.2636 35.7112 53.4684 34.3554 55.2253 31.9125C56.2598 30.4741 56.7444 28.8684 56.9808 27.2165L51.9301 27.2162ZM69.4441 39.1882C61.35 39.1882 56.1782 42.5804 52.675 47.7083C49.4169 52.4781 47.8026 58.8655 47.5909 65.127C54.2244 68.5006 58.0726 72.4127 59.2091 76.9843C59.4019 77.7538 59.5183 78.5402 59.5568 79.3323C61.9444 80.686 65.7099 81.5577 69.5769 81.5571C73.0045 81.5566 76.4878 80.8879 79.1412 79.7444C79.1801 78.8545 79.3106 77.971 79.5307 77.1077C80.7194 72.4715 84.5729 68.3538 91.2976 65.094C91.0755 59.1719 89.4975 52.8082 86.2628 47.9717C82.7649 42.7404 77.5857 39.1882 69.4446 39.1882H69.4441ZM61.5275 58.9307C63.954 58.9307 65.9245 60.8832 65.9245 63.2979C65.9245 65.7126 63.9543 67.673 61.5275 67.673C59.101 67.673 57.1388 65.7123 57.1388 63.2976C57.1388 60.8832 59.1007 58.9307 61.5275 58.9307ZM76.2178 58.9307C78.6446 58.9307 80.615 60.8832 80.615 63.2979C80.615 65.7126 78.644 67.673 76.2175 67.673C73.791 67.673 71.8285 65.7123 71.8285 63.2976C71.8285 60.8832 73.7907 58.9307 76.2175 58.9307H76.2178ZM68.5744 67.7885C70.2372 71.2816 71.5555 74.7766 72.2101 78.2694C69.7859 77.4726 67.3634 77.3661 64.9393 78.2694C65.8243 74.7758 66.8875 71.2811 68.5749 67.7885H68.5744ZM58.7618 84.5237C58.1958 86.2165 57.3613 87.8929 56.3271 89.5414C59.4884 91.6481 64.6955 92.919 69.8085 92.8621C74.8353 92.8056 79.5808 91.3934 82.0563 89.5907C81.1156 88.0709 80.3572 86.4794 79.8452 84.8446C76.6794 86.009 73.1081 86.5255 69.5769 86.5258C65.7486 86.5263 61.9531 85.9399 58.7618 84.5234V84.5237ZM40.0387 89.0219C37.6803 91.993 36.6749 94.9527 37.3808 98.5967C55.6453 100.057 80.8906 107.013 97.4504 114.615C99.8777 111.671 100.768 108.637 100.092 104.917C82.134 103.106 56.5982 97.34 40.0387 89.0222V89.0219ZM97.434 89.0219C91.9248 91.7895 85.423 94.2709 78.5367 96.4214C83.9155 97.5905 89.2034 98.5413 94.0969 99.2395C96.1591 98.969 98.1664 98.7509 100.092 98.5967C100.797 94.9527 99.7918 91.993 97.4334 89.0222L97.434 89.0219ZM43.4422 104.192C41.4261 104.469 39.4052 104.71 37.3806 104.917C36.7048 108.637 37.5952 111.671 40.022 114.614C45.6861 112.015 52.3639 109.487 59.4325 107.232C53.9022 105.937 48.4659 104.894 43.4422 104.192Z" fill="#333333"/>
</svg>
